# xmcd
#
# Track frame offsets: 
#        150
#        20637
#        36524
#        62941
#        84383
#        99442
#        112435
#        131257
#        153799
#        173337
#        197539
#        214071
#        226169
#
# Disc length: 3107 seconds
#
# Revision: 0
# Processed by: cddbd v1.5.2PL0 Copyright (c) Steve Scherf et al.
# Submitted via: ExactAudioCopyFreeDBPlugin 1.0
#
DISCID=a60c210d
DTITLE=Geo - Les Iles
DYEAR=2009
DGENRE=Folk
TTITLE0=Thierry Fanfant - Pani Ayen
TTITLE1=Franky Vargas - No Serarar
TTITLE2=My Malagasy Orchestra - Zavamaneno
TTITLE3=Damily - Mifona
TTITLE4=Leila Negrau - Ravan
TTITLE5=Lindigo - Mpanjaka
TTITLE6=Exile One - Cavaliere Mi Cavalier
TTITLE7=Salem Tradition - Famn
TTITLE8=Gordon Handerson - Ki Moun Who
TTITLE9=Eddie Bobbé - Compa Galletano
TTITLE10=Desir - Bel Ti Manmay
TTITLE11=James Parkey - Steel Drums
TTITLE12=Adrian Kensgton - African Roots
EXTD=
EXTT0=
EXTT1=
EXTT2=
EXTT3=
EXTT4=
EXTT5=
EXTT6=
EXTT7=
EXTT8=
EXTT9=
EXTT10=
EXTT11=
EXTT12=
PLAYORDER=
